<svg width="14" height="15" viewBox="0 0 14 15" fill="none" xmlns="http://www.w3.org/2000/svg">
<path fill-rule="evenodd" clip-rule="evenodd" d="M2.50004 6.70325V5.33325C2.50004 4.13978 2.97415 2.99519 3.81806 2.15127C4.66197 1.30736 5.80657 0.833252 7.00004 0.833252C8.19351 0.833252 9.33811 1.30736 10.182 2.15127C11.0259 2.99519 11.5 4.13978 11.5 5.33325V6.70325C12.2434 6.75858 12.7267 6.89858 13.0807 7.25258C13.6667 7.83792 13.6667 8.78125 13.6667 10.6666C13.6667 12.5519 13.6667 13.4953 13.0807 14.0806C12.4954 14.6666 11.552 14.6666 9.66671 14.6666H4.33337C2.44804 14.6666 1.50471 14.6666 0.919374 14.0806C0.333374 13.4953 0.333374 12.5519 0.333374 10.6666C0.333374 8.78125 0.333374 7.83792 0.919374 7.25258C1.27271 6.89858 1.75671 6.75858 2.50004 6.70325ZM3.50004 5.33325C3.50004 4.40499 3.86879 3.51476 4.52517 2.85838C5.18154 2.202 6.07178 1.83325 7.00004 1.83325C7.9283 1.83325 8.81854 2.202 9.47491 2.85838C10.1313 3.51476 10.5 4.40499 10.5 5.33325V6.66925C10.2449 6.66703 9.96715 6.66614 9.66671 6.66658H4.33337C4.03249 6.66614 3.75471 6.66703 3.50004 6.66925V5.33325Z" fill="#E2F20F"/>
</svg>
