<svg width="27" height="28" viewBox="0 0 27 28" fill="none" xmlns="http://www.w3.org/2000/svg">
<path d="M25.5113 15.9525L25.7988 12.9075C26.0238 10.5175 26.1363 9.32125 25.7263 8.8275C25.6228 8.69918 25.495 8.59259 25.3502 8.51386C25.2054 8.43513 25.0465 8.38581 24.8825 8.36875C24.2875 8.31625 23.5413 9.16625 22.0475 10.8663C21.275 11.7463 20.8888 12.185 20.4588 12.2537C20.2186 12.2914 19.9727 12.2521 19.7563 12.1412C19.3575 11.9412 19.0938 11.3975 18.5625 10.3112L15.7663 4.58125C14.7638 2.5275 14.2625 1.5 13.5 1.5C12.7375 1.5 12.2363 2.5275 11.2338 4.58125L8.43753 10.3112C7.90753 11.3987 7.64253 11.9412 7.24378 12.1412C7.02712 12.2512 6.78145 12.2906 6.54128 12.2537C6.11128 12.185 5.72503 11.7463 4.95253 10.8663C3.45878 9.16625 2.71253 8.31625 2.11753 8.36875C1.95359 8.38581 1.79464 8.43513 1.64983 8.51386C1.50503 8.59259 1.37722 8.69918 1.27378 8.8275C0.865025 9.32125 0.977525 10.5175 1.20253 12.9075L1.48878 15.9525C1.96128 20.9675 2.19628 23.4763 3.67628 24.9875C5.15252 26.5 7.36753 26.5 11.8 26.5H15.1988C19.63 26.5 21.845 26.5 23.3238 24.9875C24.8025 23.475 25.0388 20.9675 25.5113 15.9525Z" fill="#E2F20F" stroke="#E2F20F" stroke-width="1.5"/>
</svg>
